<svg xmlns="http://www.w3.org/2000/svg" xmlns:xlink="http://www.w3.org/1999/xlink" version="1.1" class="marks" width="130" height="419" viewBox="0 0 130 419"><g fill="none" stroke-miterlimit="10" transform="translate(65,14)"><g class="mark-group role-frame root" role="graphics-object" aria-roledescription="group mark container"><g transform="translate(0,0)"><path class="background" aria-hidden="true" d="M0,0h0v0h0Z"/><g><g class="mark-path role-mark" role="graphics-symbol" aria-roledescription="path mark container"><path transform="translate(0,0)" d="M10.000000000088534,99.97448804340966C10.000000000088534,125.05795256788292 10.000000000000012,125.05795256788292 10.000000000000012,150.1414170923562" stroke="#ccc" stroke-width="1"/><path transform="translate(0,0)" d="M10.000000000000012,150.1414170923562C10.000000000000012,175.07072177060155 10,175.07072177060155 10,200.00002644884688" stroke="#ccc" stroke-width="1"/><path transform="translate(0,0)" d="M10,200.00002644884688C10,225.00114593868216 10,225.00114593868216 10,250.0022654285174" stroke="#ccc" stroke-width="1"/><path transform="translate(0,0)" d="M10,250.0022654285174C10,275.0261760639549 10.000000000000002,275.0261760639549 10.000000000000002,300.05008669939235" stroke="#ccc" stroke-width="1"/><path transform="translate(0,0)" d="M10.000000000000002,300.05008669939235C10.000000000000002,325.02266418615125 10,325.02266418615125 10,349.9952416729101" stroke="#ccc" stroke-width="1"/><path transform="translate(0,0)" d="M10.000000000000002,300.05008669939235C10.000000000000002,325.02266418615125 10,325.02266418615125 10,349.9952416729101" stroke="#ccc" stroke-width="1"/><path transform="translate(0,0)" d="M10.000000000000002,300.05008669939235C10.000000000000002,325.02266418615125 10,325.02266418615125 10,349.9952416729101" stroke="#ccc" stroke-width="1"/><path transform="translate(0,0)" d="M10.000000000000002,300.05008669939235C10.000000000000002,325.02266418615125 10,325.02266418615125 10,349.9952416729101" stroke="#ccc" stroke-width="1"/><path transform="translate(0,0)" d="M10.000000000000002,300.05008669939235C10.000000000000002,325.02266418615125 10,325.02266418615125 10,349.9952416729101" stroke="#ccc" stroke-width="1"/><path transform="translate(0,0)" d="M10.000000000000002,300.05008669939235C10.000000000000002,325.02266418615125 10,325.02266418615125 10,349.9952416729101" stroke="#ccc" stroke-width="1"/><path transform="translate(0,0)" d="M10.000000000000002,300.05008669939235C10.000000000000002,325.02266418615125 10,325.02266418615125 10,349.9952416729101" stroke="#ccc" stroke-width="1"/><path transform="translate(0,0)" d="M10.000000000000002,300.05008669939235C10.000000000000002,325.02266418615125 10,325.02266418615125 10,349.9952416729101" stroke="#ccc" stroke-width="1"/><path transform="translate(0,0)" d="M10.000000000000002,300.05008669939235C10.000000000000002,325.02266418615125 10,325.02266418615125 10,349.9952416729101" stroke="#ccc" stroke-width="1"/><path transform="translate(0,0)" d="M10.000000000000002,300.05008669939235C10.000000000000002,325.02266418615125 10,325.02266418615125 10,349.9952416729101" stroke="#ccc" stroke-width="1"/><path transform="translate(0,0)" d="M10.000000000000002,300.05008669939235C10.000000000000002,325.02266418615125 10,325.02266418615125 10,349.9952416729101" stroke="#ccc" stroke-width="1"/><path transform="translate(0,0)" d="M10.000000000000002,300.05008669939235C10.000000000000002,325.02266418615125 10,325.02266418615125 10,349.9952416729101" stroke="#ccc" stroke-width="1"/><path transform="translate(0,0)" d="M10.000000000000002,300.05008669939235C10.000000000000002,325.02266418615125 10,325.02266418615125 10,349.9952416729101" stroke="#ccc" stroke-width="1"/><path transform="translate(0,0)" d="M10,349.9952416729101C10,374.9413635948805 10.000000000004095,374.9413635948805 10.000000000004095,399.887485516851" stroke="#ccc" stroke-width="1"/></g><g class="mark-path role-mark" role="graphics-symbol" aria-roledescription="path mark container"><path transform="translate(0,0)" d="M9.999999999911449,0.033600000000000026C29.9881776086288,20.021777608646516 29.98817760873505,79.98631043469231 10.000000000088534,99.97448804340966" stroke="#ccc" stroke-width="1"/><path transform="translate(0,0)" d="M9.999999999889354,50.29622857142857C79.9182513889968,120.2144799604901 79.91825138906562,329.96923412774356 10.000000000004095,399.887485516851" stroke="#ccc" stroke-width="1"/><path transform="translate(0,0)" d="M10.000000000000012,150.1414170923562C59.94921368489979,200.09063077725432 59.94921368490223,349.93827183195117 10.000000000004095,399.887485516851" stroke="#ccc" stroke-width="1"/><path transform="translate(0,0)" d="M10.000000000000012,150.1414170923562C59.94921368489979,200.09063077725432 59.94921368490223,349.93827183195117 10.000000000004095,399.887485516851" stroke="#ccc" stroke-width="1"/><path transform="translate(0,0)" d="M10.000000000000012,150.1414170923562C59.94921368489979,200.09063077725432 59.94921368490223,349.93827183195117 10.000000000004095,399.887485516851" stroke="#ccc" stroke-width="1"/><path transform="translate(0,0)" d="M10.000000000000012,150.1414170923562C59.94921368489979,200.09063077725432 59.94921368490223,349.93827183195117 10.000000000004095,399.887485516851" stroke="#ccc" stroke-width="1"/><path transform="translate(0,0)" d="M10.000000000000012,150.1414170923562C59.94921368489979,200.09063077725432 59.94921368490223,349.93827183195117 10.000000000004095,399.887485516851" stroke="#ccc" stroke-width="1"/><path transform="translate(0,0)" d="M10.000000000000012,150.1414170923562C59.94921368489979,200.09063077725432 59.94921368490223,349.93827183195117 10.000000000004095,399.887485516851" stroke="#ccc" stroke-width="1"/><path transform="translate(0,0)" d="M10.000000000000012,150.1414170923562C59.94921368489979,200.09063077725432 59.94921368490223,349.93827183195117 10.000000000004095,399.887485516851" stroke="#ccc" stroke-width="1"/><path transform="translate(0,0)" d="M10.000000000000012,150.1414170923562C59.94921368489979,200.09063077725432 59.94921368490223,349.93827183195117 10.000000000004095,399.887485516851" stroke="#ccc" stroke-width="1"/><path transform="translate(0,0)" d="M10.000000000000012,150.1414170923562C59.94921368489979,200.09063077725432 59.94921368490223,349.93827183195117 10.000000000004095,399.887485516851" stroke="#ccc" stroke-width="1"/><path transform="translate(0,0)" d="M10.000000000000012,150.1414170923562C59.94921368489979,200.09063077725432 59.94921368490223,349.93827183195117 10.000000000004095,399.887485516851" stroke="#ccc" stroke-width="1"/><path transform="translate(0,0)" d="M10.000000000000012,150.1414170923562C59.94921368489979,200.09063077725432 59.94921368490223,349.93827183195117 10.000000000004095,399.887485516851" stroke="#ccc" stroke-width="1"/><path transform="translate(0,0)" d="M10.000000000000012,150.1414170923562C59.94921368489979,200.09063077725432 59.94921368490223,349.93827183195117 10.000000000004095,399.887485516851" stroke="#ccc" stroke-width="1"/><path transform="translate(0,0)" d="M10.000000000000012,150.1414170923562C59.94921368489979,200.09063077725432 59.94921368490223,349.93827183195117 10.000000000004095,399.887485516851" stroke="#ccc" stroke-width="1"/><path transform="translate(0,0)" d="M10.000000000000002,300.05008669939235C29.96747976349255,320.0175664628833 29.967479763495,379.92000575335845 10.000000000004095,399.887485516851" stroke="#ccc" stroke-width="1"/><path transform="translate(0,0)" d="M10.000000000000002,300.05008669939235C29.96747976349255,320.0175664628833 29.967479763495,379.92000575335845 10.000000000004095,399.887485516851" stroke="#ccc" stroke-width="1"/><path transform="translate(0,0)" d="M10.000000000000002,300.05008669939235C29.96747976349255,320.0175664628833 29.967479763495,379.92000575335845 10.000000000004095,399.887485516851" stroke="#ccc" stroke-width="1"/><path transform="translate(0,0)" d="M10.000000000000002,300.05008669939235C29.96747976349255,320.0175664628833 29.967479763495,379.92000575335845 10.000000000004095,399.887485516851" stroke="#ccc" stroke-width="1"/><path transform="translate(0,0)" d="M10.000000000000002,300.05008669939235C29.96747976349255,320.0175664628833 29.967479763495,379.92000575335845 10.000000000004095,399.887485516851" stroke="#ccc" stroke-width="1"/><path transform="translate(0,0)" d="M10.000000000000002,300.05008669939235C29.96747976349255,320.0175664628833 29.967479763495,379.92000575335845 10.000000000004095,399.887485516851" stroke="#ccc" stroke-width="1"/><path transform="translate(0,0)" d="M10.000000000000002,300.05008669939235C29.96747976349255,320.0175664628833 29.967479763495,379.92000575335845 10.000000000004095,399.887485516851" stroke="#ccc" stroke-width="1"/><path transform="translate(0,0)" d="M10.000000000000002,300.05008669939235C29.96747976349255,320.0175664628833 29.967479763495,379.92000575335845 10.000000000004095,399.887485516851" stroke="#ccc" stroke-width="1"/><path transform="translate(0,0)" d="M10.000000000000002,300.05008669939235C29.96747976349255,320.0175664628833 29.967479763495,379.92000575335845 10.000000000004095,399.887485516851" stroke="#ccc" stroke-width="1"/><path transform="translate(0,0)" d="M10.000000000000002,300.05008669939235C29.96747976349255,320.0175664628833 29.967479763495,379.92000575335845 10.000000000004095,399.887485516851" stroke="#ccc" stroke-width="1"/><path transform="translate(0,0)" d="M10.000000000000002,300.05008669939235C29.96747976349255,320.0175664628833 29.967479763495,379.92000575335845 10.000000000004095,399.887485516851" stroke="#ccc" stroke-width="1"/><path transform="translate(0,0)" d="M10.000000000000002,300.05008669939235C29.96747976349255,320.0175664628833 29.967479763495,379.92000575335845 10.000000000004095,399.887485516851" stroke="#ccc" stroke-width="1"/><path transform="translate(0,0)" d="M10.000000000000002,300.05008669939235C29.96747976349255,320.0175664628833 29.967479763495,379.92000575335845 10.000000000004095,399.887485516851" stroke="#ccc" stroke-width="1"/></g><g class="mark-symbol role-mark nodes" role="graphics-symbol" aria-roledescription="symbol mark container"><path transform="translate(9.999999999911449,0.033600000000000026)" d="M4.183300132670378,0A4.183300132670378,4.183300132670378,0,1,1,-4.183300132670378,0A4.183300132670378,4.183300132670378,0,1,1,4.183300132670378,0" fill="#3182bd"/><path transform="translate(9.999999999889354,50.29622857142857)" d="M4.183300132670378,0A4.183300132670378,4.183300132670378,0,1,1,-4.183300132670378,0A4.183300132670378,4.183300132670378,0,1,1,4.183300132670378,0" fill="#6baed6"/><path transform="translate(10.000000000088534,99.97448804340966)" d="M4.183300132670378,0A4.183300132670378,4.183300132670378,0,1,1,-4.183300132670378,0A4.183300132670378,4.183300132670378,0,1,1,4.183300132670378,0" fill="#9ecae1"/><path transform="translate(10.000000000000012,150.1414170923562)" d="M4.183300132670378,0A4.183300132670378,4.183300132670378,0,1,1,-4.183300132670378,0A4.183300132670378,4.183300132670378,0,1,1,4.183300132670378,0" fill="#c6dbef"/><path transform="translate(10,200.00002644884688)" d="M4.183300132670378,0A4.183300132670378,4.183300132670378,0,1,1,-4.183300132670378,0A4.183300132670378,4.183300132670378,0,1,1,4.183300132670378,0" fill="#e6550d"/><path transform="translate(10,250.0022654285174)" d="M4.183300132670378,0A4.183300132670378,4.183300132670378,0,1,1,-4.183300132670378,0A4.183300132670378,4.183300132670378,0,1,1,4.183300132670378,0" fill="#fd8d3c"/><path transform="translate(10.000000000000002,300.05008669939235)" d="M4.183300132670378,0A4.183300132670378,4.183300132670378,0,1,1,-4.183300132670378,0A4.183300132670378,4.183300132670378,0,1,1,4.183300132670378,0" fill="#fdae6b"/><path transform="translate(10,349.9952416729101)" d="M4.183300132670378,0A4.183300132670378,4.183300132670378,0,1,1,-4.183300132670378,0A4.183300132670378,4.183300132670378,0,1,1,4.183300132670378,0" fill="#fdd0a2"/><path transform="translate(10.000000000004095,399.887485516851)" d="M4.183300132670378,0A4.183300132670378,4.183300132670378,0,1,1,-4.183300132670378,0A4.183300132670378,4.183300132670378,0,1,1,4.183300132670378,0" fill="#31a354"/></g><g class="mark-text role-mark labels" role="graphics-object" aria-roledescription="text mark container"><text text-anchor="end" transform="translate(5,-5)" font-family="sans-serif" font-size="11px" font-weight="normal" fill="black">dump_fq</text><text text-anchor="end" transform="translate(5,45)" font-family="sans-serif" font-size="11px" font-weight="normal" fill="black">get_SRRs</text><text text-anchor="end" transform="translate(5,95)" font-family="sans-serif" font-size="11px" font-weight="normal" fill="black">compress_fq</text><text text-anchor="end" transform="translate(5,145)" font-family="sans-serif" font-size="11px" font-weight="normal" fill="black">namefix_fq</text><text text-anchor="end" transform="translate(5,195)" font-family="sans-serif" font-size="11px" font-weight="normal" fill="black">check_fq</text><text text-anchor="end" transform="translate(5,245)" font-family="sans-serif" font-size="11px" font-weight="normal" fill="black">cr_mapping</text><text text-anchor="end" transform="translate(5,295)" font-family="sans-serif" font-size="11px" font-weight="normal" fill="black">preprocess</text><text text-anchor="end" transform="translate(5,345)" font-family="sans-serif" font-size="11px" font-weight="normal" fill="black">integrate</text><text text-anchor="end" transform="translate(5,395)" font-family="sans-serif" font-size="11px" font-weight="normal" fill="black">all</text></g></g><path class="foreground" aria-hidden="true" d="" display="none"/></g></g></g></svg>