<?xml version="1.0" encoding="UTF-8" standalone="no"?>
<svg
   xmlns:dc="http://purl.org/dc/elements/1.1/"
   xmlns:cc="http://creativecommons.org/ns#"
   xmlns:rdf="http://www.w3.org/1999/02/22-rdf-syntax-ns#"
   xmlns:svg="http://www.w3.org/2000/svg"
   xmlns="http://www.w3.org/2000/svg"
   xmlns:sodipodi="http://sodipodi.sourceforge.net/DTD/sodipodi-0.dtd"
   xmlns:inkscape="http://www.inkscape.org/namespaces/inkscape"
   version="1.1"
   class="marks"
   width="130"
   height="419"
   viewBox="0 0 130 419"
   id="svg150"
   sodipodi:docname="pipe.svg"
   inkscape:version="1.0.2 (e86c870879, 2021-01-15)">
  <metadata
     id="metadata156">
    <rdf:RDF>
      <cc:Work
         rdf:about="">
        <dc:format>image/svg+xml</dc:format>
        <dc:type
           rdf:resource="http://purl.org/dc/dcmitype/StillImage" />
        <dc:title></dc:title>
      </cc:Work>
    </rdf:RDF>
  </metadata>
  <defs
     id="defs154" />
  <sodipodi:namedview
     pagecolor="#ffffff"
     bordercolor="#666666"
     borderopacity="1"
     objecttolerance="10"
     gridtolerance="10"
     guidetolerance="10"
     inkscape:pageopacity="0"
     inkscape:pageshadow="2"
     inkscape:window-width="1280"
     inkscape:window-height="1343"
     id="namedview152"
     showgrid="false"
     inkscape:zoom="2.4057279"
     inkscape:cx="65"
     inkscape:cy="209.5"
     inkscape:window-x="0"
     inkscape:window-y="27"
     inkscape:window-maximized="0"
     inkscape:current-layer="svg150" />
  <path
     class="background"
     aria-hidden="true"
     d="M 65,14 Z"
     id="path2"
     style="fill:none;stroke-miterlimit:10" />
  <path
     d="m 75,113.97449 c 0,25.08346 0,25.08346 0,50.16693"
     stroke="#cccccc"
     stroke-width="1"
     id="path4"
     style="fill:none;stroke-miterlimit:10" />
  <path
     d="m 75,164.14142 c 0,24.9293 0,24.9293 0,49.85861"
     stroke="#cccccc"
     stroke-width="1"
     id="path6"
     style="fill:none;stroke-miterlimit:10" />
  <path
     d="m 75,214.00003 c 0,25.00112 0,25.00112 0,50.00224"
     stroke="#cccccc"
     stroke-width="1"
     id="path8"
     style="fill:none;stroke-miterlimit:10" />
  <path
     d="m 75,264.00227 c 0,25.02391 0,25.02391 0,50.04782"
     stroke="#cccccc"
     stroke-width="1"
     id="path10"
     style="fill:none;stroke-miterlimit:10" />
  <path
     d="m 75,314.05009 c 0,24.97257 0,24.97257 0,49.94515"
     stroke="#cccccc"
     stroke-width="1"
     id="path12"
     style="fill:none;stroke-miterlimit:10" />
  <path
     d="m 75,314.05009 c 0,24.97257 0,24.97257 0,49.94515"
     stroke="#cccccc"
     stroke-width="1"
     id="path14"
     style="fill:none;stroke-miterlimit:10" />
  <path
     d="m 75,314.05009 c 0,24.97257 0,24.97257 0,49.94515"
     stroke="#cccccc"
     stroke-width="1"
     id="path16"
     style="fill:none;stroke-miterlimit:10" />
  <path
     d="m 75,314.05009 c 0,24.97257 0,24.97257 0,49.94515"
     stroke="#cccccc"
     stroke-width="1"
     id="path18"
     style="fill:none;stroke-miterlimit:10" />
  <path
     d="m 75,314.05009 c 0,24.97257 0,24.97257 0,49.94515"
     stroke="#cccccc"
     stroke-width="1"
     id="path20"
     style="fill:none;stroke-miterlimit:10" />
  <path
     d="m 75,314.05009 c 0,24.97257 0,24.97257 0,49.94515"
     stroke="#cccccc"
     stroke-width="1"
     id="path22"
     style="fill:none;stroke-miterlimit:10" />
  <path
     d="m 75,314.05009 c 0,24.97257 0,24.97257 0,49.94515"
     stroke="#cccccc"
     stroke-width="1"
     id="path24"
     style="fill:none;stroke-miterlimit:10" />
  <path
     d="m 75,314.05009 c 0,24.97257 0,24.97257 0,49.94515"
     stroke="#cccccc"
     stroke-width="1"
     id="path26"
     style="fill:none;stroke-miterlimit:10" />
  <path
     d="m 75,314.05009 c 0,24.97257 0,24.97257 0,49.94515"
     stroke="#cccccc"
     stroke-width="1"
     id="path28"
     style="fill:none;stroke-miterlimit:10" />
  <path
     d="m 75,314.05009 c 0,24.97257 0,24.97257 0,49.94515"
     stroke="#cccccc"
     stroke-width="1"
     id="path30"
     style="fill:none;stroke-miterlimit:10" />
  <path
     d="m 75,314.05009 c 0,24.97257 0,24.97257 0,49.94515"
     stroke="#cccccc"
     stroke-width="1"
     id="path32"
     style="fill:none;stroke-miterlimit:10" />
  <path
     d="m 75,314.05009 c 0,24.97257 0,24.97257 0,49.94515"
     stroke="#cccccc"
     stroke-width="1"
     id="path34"
     style="fill:none;stroke-miterlimit:10" />
  <path
     d="m 75,314.05009 c 0,24.97257 0,24.97257 0,49.94515"
     stroke="#cccccc"
     stroke-width="1"
     id="path36"
     style="fill:none;stroke-miterlimit:10" />
  <path
     d="m 75,363.99524 c 0,24.94612 0,24.94612 0,49.89225"
     stroke="#cccccc"
     stroke-width="1"
     id="path38"
     style="fill:none;stroke-miterlimit:10" />
  <path
     d="m 75,14.0336 c 19.988178,19.988178 19.988178,79.95271 0,99.94089"
     stroke="#cccccc"
     stroke-width="1"
     id="path42"
     style="fill:none;stroke-miterlimit:10" />
  <path
     d="m 75,64.296229 c 69.91825,69.918251 69.91825,279.673001 0,349.591261"
     stroke="#cccccc"
     stroke-width="1"
     id="path44"
     style="fill:none;stroke-miterlimit:10" />
  <path
     d="m 75,164.14142 c 49.94921,49.94921 49.94921,199.79685 0,249.74607"
     stroke="#cccccc"
     stroke-width="1"
     id="path46"
     style="fill:none;stroke-miterlimit:10" />
  <path
     d="m 75,164.14142 c 49.94921,49.94921 49.94921,199.79685 0,249.74607"
     stroke="#cccccc"
     stroke-width="1"
     id="path48"
     style="fill:none;stroke-miterlimit:10" />
  <path
     d="m 75,164.14142 c 49.94921,49.94921 49.94921,199.79685 0,249.74607"
     stroke="#cccccc"
     stroke-width="1"
     id="path50"
     style="fill:none;stroke-miterlimit:10" />
  <path
     d="m 75,164.14142 c 49.94921,49.94921 49.94921,199.79685 0,249.74607"
     stroke="#cccccc"
     stroke-width="1"
     id="path52"
     style="fill:none;stroke-miterlimit:10" />
  <path
     d="m 75,164.14142 c 49.94921,49.94921 49.94921,199.79685 0,249.74607"
     stroke="#cccccc"
     stroke-width="1"
     id="path54"
     style="fill:none;stroke-miterlimit:10" />
  <path
     d="m 75,164.14142 c 49.94921,49.94921 49.94921,199.79685 0,249.74607"
     stroke="#cccccc"
     stroke-width="1"
     id="path56"
     style="fill:none;stroke-miterlimit:10" />
  <path
     d="m 75,164.14142 c 49.94921,49.94921 49.94921,199.79685 0,249.74607"
     stroke="#cccccc"
     stroke-width="1"
     id="path58"
     style="fill:none;stroke-miterlimit:10" />
  <path
     d="m 75,164.14142 c 49.94921,49.94921 49.94921,199.79685 0,249.74607"
     stroke="#cccccc"
     stroke-width="1"
     id="path60"
     style="fill:none;stroke-miterlimit:10" />
  <path
     d="m 75,164.14142 c 49.94921,49.94921 49.94921,199.79685 0,249.74607"
     stroke="#cccccc"
     stroke-width="1"
     id="path62"
     style="fill:none;stroke-miterlimit:10" />
  <path
     d="m 75,164.14142 c 49.94921,49.94921 49.94921,199.79685 0,249.74607"
     stroke="#cccccc"
     stroke-width="1"
     id="path64"
     style="fill:none;stroke-miterlimit:10" />
  <path
     d="m 75,164.14142 c 49.94921,49.94921 49.94921,199.79685 0,249.74607"
     stroke="#cccccc"
     stroke-width="1"
     id="path66"
     style="fill:none;stroke-miterlimit:10" />
  <path
     d="m 75,164.14142 c 49.94921,49.94921 49.94921,199.79685 0,249.74607"
     stroke="#cccccc"
     stroke-width="1"
     id="path68"
     style="fill:none;stroke-miterlimit:10" />
  <path
     d="m 75,164.14142 c 49.94921,49.94921 49.94921,199.79685 0,249.74607"
     stroke="#cccccc"
     stroke-width="1"
     id="path70"
     style="fill:none;stroke-miterlimit:10" />
  <path
     d="m 75,314.05009 c 19.96748,19.96748 19.96748,79.86992 0,99.8374"
     stroke="#cccccc"
     stroke-width="1"
     id="path72"
     style="fill:none;stroke-miterlimit:10" />
  <path
     d="m 75,314.05009 c 19.96748,19.96748 19.96748,79.86992 0,99.8374"
     stroke="#cccccc"
     stroke-width="1"
     id="path74"
     style="fill:none;stroke-miterlimit:10" />
  <path
     d="m 75,314.05009 c 19.96748,19.96748 19.96748,79.86992 0,99.8374"
     stroke="#cccccc"
     stroke-width="1"
     id="path76"
     style="fill:none;stroke-miterlimit:10" />
  <path
     d="m 75,314.05009 c 19.96748,19.96748 19.96748,79.86992 0,99.8374"
     stroke="#cccccc"
     stroke-width="1"
     id="path78"
     style="fill:none;stroke-miterlimit:10" />
  <path
     d="m 75,314.05009 c 19.96748,19.96748 19.96748,79.86992 0,99.8374"
     stroke="#cccccc"
     stroke-width="1"
     id="path80"
     style="fill:none;stroke-miterlimit:10" />
  <path
     d="m 75,314.05009 c 19.96748,19.96748 19.96748,79.86992 0,99.8374"
     stroke="#cccccc"
     stroke-width="1"
     id="path82"
     style="fill:none;stroke-miterlimit:10" />
  <path
     d="m 75,314.05009 c 19.96748,19.96748 19.96748,79.86992 0,99.8374"
     stroke="#cccccc"
     stroke-width="1"
     id="path84"
     style="fill:none;stroke-miterlimit:10" />
  <path
     d="m 75,314.05009 c 19.96748,19.96748 19.96748,79.86992 0,99.8374"
     stroke="#cccccc"
     stroke-width="1"
     id="path86"
     style="fill:none;stroke-miterlimit:10" />
  <path
     d="m 75,314.05009 c 19.96748,19.96748 19.96748,79.86992 0,99.8374"
     stroke="#cccccc"
     stroke-width="1"
     id="path88"
     style="fill:none;stroke-miterlimit:10" />
  <path
     d="m 75,314.05009 c 19.96748,19.96748 19.96748,79.86992 0,99.8374"
     stroke="#cccccc"
     stroke-width="1"
     id="path90"
     style="fill:none;stroke-miterlimit:10" />
  <path
     d="m 75,314.05009 c 19.96748,19.96748 19.96748,79.86992 0,99.8374"
     stroke="#cccccc"
     stroke-width="1"
     id="path92"
     style="fill:none;stroke-miterlimit:10" />
  <path
     d="m 75,314.05009 c 19.96748,19.96748 19.96748,79.86992 0,99.8374"
     stroke="#cccccc"
     stroke-width="1"
     id="path94"
     style="fill:none;stroke-miterlimit:10" />
  <path
     d="m 75,314.05009 c 19.96748,19.96748 19.96748,79.86992 0,99.8374"
     stroke="#cccccc"
     stroke-width="1"
     id="path96"
     style="fill:none;stroke-miterlimit:10" />
  <path
     d="m 79.1833,14.0336 a 4.1833001,4.1833001 0 1 1 -8.3666,0 4.1833001,4.1833001 0 1 1 8.3666,0"
     fill="#3182bd"
     id="path100"
     style="stroke-miterlimit:10" />
  <path
     d="m 79.1833,64.296229 a 4.1833001,4.1833001 0 1 1 -8.3666,0 4.1833001,4.1833001 0 1 1 8.3666,0"
     fill="#6baed6"
     id="path102"
     style="stroke-miterlimit:10" />
  <path
     d="m 79.1833,113.97449 a 4.1833001,4.1833001 0 1 1 -8.3666,0 4.1833001,4.1833001 0 1 1 8.3666,0"
     fill="#9ecae1"
     id="path104"
     style="stroke-miterlimit:10" />
  <path
     d="m 79.1833,164.14142 a 4.1833001,4.1833001 0 1 1 -8.3666,0 4.1833001,4.1833001 0 1 1 8.3666,0"
     fill="#c6dbef"
     id="path106"
     style="stroke-miterlimit:10" />
  <path
     d="m 79.1833,214.00003 a 4.1833001,4.1833001 0 1 1 -8.3666,0 4.1833001,4.1833001 0 1 1 8.3666,0"
     fill="#e6550d"
     id="path108"
     style="stroke-miterlimit:10" />
  <path
     d="m 79.1833,264.00227 a 4.1833001,4.1833001 0 1 1 -8.3666,0 4.1833001,4.1833001 0 1 1 8.3666,0"
     fill="#fd8d3c"
     id="path110"
     style="stroke-miterlimit:10" />
  <path
     d="m 79.1833,314.05009 a 4.1833001,4.1833001 0 1 1 -8.3666,0 4.1833001,4.1833001 0 1 1 8.3666,0"
     fill="#fdae6b"
     id="path112"
     style="stroke-miterlimit:10" />
  <path
     d="m 79.1833,363.99524 a 4.1833001,4.1833001 0 1 1 -8.3666,0 4.1833001,4.1833001 0 1 1 8.3666,0"
     fill="#fdd0a2"
     id="path114"
     style="stroke-miterlimit:10" />
  <path
     d="m 79.1833,413.88749 a 4.1833001,4.1833001 0 1 1 -8.3666,0 4.1833001,4.1833001 0 1 1 8.3666,0"
     fill="#31a354"
     id="path116"
     style="stroke-miterlimit:10" />
  <text
     text-anchor="end"
     font-family="sans-serif"
     font-size="11px"
     font-weight="normal"
     fill="#000000"
     id="text120"
     style="stroke-miterlimit:10"
     x="68.235359"
     y="67.435387">dump_fq</text>
  <text
     text-anchor="end"
     font-family="sans-serif"
     font-size="11px"
     font-weight="normal"
     fill="#000000"
     id="text122"
     style="stroke-miterlimit:10"
     x="67.957146"
     y="16.722565">get_SRRs</text>
  <text
     text-anchor="end"
     font-family="sans-serif"
     font-size="11px"
     font-weight="normal"
     fill="#000000"
     id="text124"
     style="stroke-miterlimit:10"
     x="70"
     y="109">compress_fq</text>
  <text
     text-anchor="end"
     font-family="sans-serif"
     font-size="11px"
     font-weight="normal"
     fill="#000000"
     id="text126"
     style="stroke-miterlimit:10"
     x="70"
     y="159">namefix_fq</text>
  <text
     text-anchor="end"
     font-family="sans-serif"
     font-size="11px"
     font-weight="normal"
     fill="#000000"
     id="text128"
     style="stroke-miterlimit:10"
     x="70"
     y="209">check_fq</text>
  <text
     text-anchor="end"
     font-family="sans-serif"
     font-size="11px"
     font-weight="normal"
     fill="#000000"
     id="text130"
     style="stroke-miterlimit:10"
     x="70"
     y="259">cr_mapping</text>
  <text
     text-anchor="end"
     font-family="sans-serif"
     font-size="11px"
     font-weight="normal"
     fill="#000000"
     id="text132"
     style="stroke-miterlimit:10"
     x="70"
     y="309">preprocess</text>
  <text
     text-anchor="end"
     font-family="sans-serif"
     font-size="11px"
     font-weight="normal"
     fill="#000000"
     id="text134"
     style="stroke-miterlimit:10"
     x="70"
     y="359">integrate</text>
  <text
     text-anchor="end"
     font-family="sans-serif"
     font-size="11px"
     font-weight="normal"
     fill="#000000"
     id="text136"
     style="stroke-miterlimit:10"
     x="70"
     y="409">all</text>
  <path
     class="foreground"
     aria-hidden="true"
     d=""
     display="none"
     id="path142"
     style="fill:none;stroke-miterlimit:10" />
</svg>
